# xmcd
#
# Track frame offsets:
#	150
#	13658
#	24657
#	37389
#	49795
#	58979
#	74121
#	86963
#	100627
#	112177
#	124449
#	135073
#
# Disc length: 2054 seconds
#
# Revision: 0
# Processed by: cddbd v1.5.2PL0 Copyright (c) Steve Scherf et al.
# Submitted via: EasyCDDAExtractor 16.0.6.1
#
DISCID=b608040c
DTITLE=Συλλογικός δίσκος - Ρεμπέτικο σεργιάνι-Ν. Καρανικόλας, Β. Γκίκα
DYEAR=1980
DGENRE=Ποικίλη
TTITLE0=Καρανικόλας Νίκος - Κανείς [Ν. Καρανικόλα]
TTITLE1=Γκίκα Βούλα - Η μόρτισσα [Α. Ρόκκα]
TTITLE2=Καρανικόλας Νίκος-Γκίκα Βούλα - Δυό λεβέντες [Γ. Σκρήνη]
TTITLE3=Γκίκα Βούλα-Καρανικόλας Νίκος - Δυό παλιοί ερασταί [Ν. Καρανικόλα]
TTITLE4=Καρανικόλας Νίκος - Μπορεί να μη με θέλεις [Ε. Ζολωτάκης]
TTITLE5=Γκίκα Βούλα - Ξημερώνει [Γ. Σκρήνη]
TTITLE6=Καρανικόλας Νίκος-Γκίκα Βούλα - Καταραμένη γέννα [Ν. Καρανικόλα]
TTITLE7=Γκίκα Βούλα-Καρανικόλας Νίκος - Ο χαρτοπαίχτης [Ν. Καρανικόλα]
TTITLE8=Καρανικόλας Νίκος - Τ' Απρίλη ένα απόγιομα [Γ. Βεντουζάς]
TTITLE9=Γκίκα Βούλα - Βασανιστήριο [Ν. Καρανικόλα]
TTITLE10=Γκίκα Βούλα-Καρανικόλας Νίκος - Το ομορφόπαιδο [Ν. Καρανικόλα]
TTITLE11=Καρανικόλας Νίκος-Γκίκα Βούλα - Το παράπονο του μπεκρή [Γ. Σκρήνη]
EXTD=
EXTT0=
EXTT1=
EXTT2=
EXTT3=
EXTT4=
EXTT5=
EXTT6=
EXTT7=
EXTT8=
EXTT9=
EXTT10=
EXTT11=
PLAYORDER=
